<?xml version="1.0" standalone="no"?>
<!DOCTYPE svg PUBLIC "-//W3C//DTD SVG 20010904//EN"
 "http://www.w3.org/TR/2001/REC-SVG-20010904/DTD/svg10.dtd">
<svg version="1.0" xmlns="http://www.w3.org/2000/svg"
 width="30.000000pt" height="30.000000pt" viewBox="0 0 30.000000 30.000000"
 preserveAspectRatio="xMidYMid meet">

<g transform="translate(0.000000,30.000000) scale(0.100000,-0.100000)"
fill="#000000" stroke="none">
<path d="M30 273 c0 -5 21 -23 45 -42 45 -33 45 -33 45 -97 l0 -63 -52 -4 -53
-3 53 -2 c68 -3 68 -22 0 -23 -62 -1 -54 -6 20 -12 l52 -4 0 41 c0 54 20 80
75 102 25 9 45 21 45 25 0 12 0 12 -49 -6 -69 -24 -46 17 43 77 6 4 8 10 4 13
-3 4 -31 -8 -61 -25 l-55 -31 -51 31 c-55 32 -61 34 -61 23z"/>
<path d="M164 115 c-4 -9 -2 -21 4 -27 15 -15 44 -1 40 19 -4 23 -36 29 -44 8z"/>
<path d="M188 63 c17 -2 47 -2 65 0 17 2 3 4 -33 4 -36 0 -50 -2 -32 -4z"/>
<path d="M188 33 c17 -2 47 -2 65 0 17 2 3 4 -33 4 -36 0 -50 -2 -32 -4z"/>
</g>
</svg>
